<svg xmlns="http://www.w3.org/2000/svg" viewBox="0 0 88 64" fill="none">
  <title>Felexia Conseils — trois expertises connectées</title>
  <g stroke-width="5.5" stroke-linecap="round" stroke-linejoin="round">
    <circle cx="20" cy="10" r="6" stroke="#7850E8"/>
    <circle cx="44" cy="10" r="6" stroke="#4932C9"/>
    <circle cx="68" cy="10" r="6" stroke="#00AFA8"/>
    <path d="m16 27-11 11a6 6 0 0 0 0 8l11 11a6 6 0 0 0 8 0l11-11a6 6 0 0 0 0-8L24 27a6 6 0 0 0-8 0Z" stroke="#7850E8"/>
    <path d="m40 27-11 11a6 6 0 0 0 0 8l11 11a6 6 0 0 0 8 0l11-11a6 6 0 0 0 0-8L48 27a6 6 0 0 0-8 0Z" stroke="#4932C9"/>
    <path d="m64 27-11 11a6 6 0 0 0 0 8l11 11a6 6 0 0 0 8 0l11-11a6 6 0 0 0 0-8L72 27a6 6 0 0 0-8 0Z" stroke="#00AFA8"/>
    <path d="m24 27 11 11" stroke="#7850E8"/>
    <path d="m48 27 11 11" stroke="#4932C9"/>
  </g>
</svg>
